<?xml version="1.0" standalone="no"?>
<!DOCTYPE svg PUBLIC "-//W3C//DTD SVG 20010904//EN"
 "http://www.w3.org/TR/2001/REC-SVG-20010904/DTD/svg10.dtd">
<svg version="1.0" xmlns="http://www.w3.org/2000/svg"
 width="1445.000000pt" height="1445.000000pt" viewBox="0 0 1445.000000 1445.000000"
 preserveAspectRatio="xMidYMid meet">
<metadata>
Created by potrace 1.14, written by Peter Selinger 2001-2017
</metadata>
<g transform="translate(0.000000,1445.000000) scale(0.100000,-0.100000)"
fill="#000000" stroke="none">
<path d="M5008 14436 c-94 -26 -172 -103 -200 -200 -9 -32 -11 -571 -9 -2313
l4 -2273 -2299 -2 -2299 -3 -51 -23 c-29 -13 -63 -35 -77 -50 -62 -64 -92
-206 -67 -310 13 -55 64 -123 110 -147 16 -8 55 -22 87 -31 53 -15 247 -17
2316 -14 l2257 2 0 -1841 0 -1841 -2266 0 -2266 1 -46 -27 c-57 -34 -149 -119
-168 -156 -22 -42 -17 -144 9 -209 30 -73 84 -147 122 -167 28 -16 216 -17
2330 -22 l2300 -5 5 -2290 5 -2290 33 -68 c54 -110 134 -154 262 -145 149 11
239 87 269 226 8 38 11 678 11 2307 l0 2255 1835 0 1835 0 2 -2277 3 -2278 22
-53 c48 -119 119 -172 238 -180 91 -6 168 17 225 65 51 44 76 93 90 174 6 43
10 812 10 2312 l0 2247 2283 0 c1462 0 2295 4 2317 10 116 32 180 121 188 261
3 49 0 97 -9 127 -18 64 -86 131 -159 157 -54 20 -95 20 -2336 23 l-2281 2 -6
533 c-4 292 -7 1109 -7 1814 l0 1281 38 24 37 23 2255 5 c2184 5 2257 6 2307
24 119 43 170 123 160 249 -14 178 -76 270 -198 296 -35 8 -739 11 -2319 11
l-2270 0 0 2223 c0 1251 -5 2263 -10 2316 -11 119 -39 169 -119 214 -46 26
-68 32 -140 35 -47 2 -104 -1 -127 -7 -96 -26 -161 -106 -183 -226 -8 -41 -11
-726 -11 -2302 l0 -2243 -1835 0 -1835 0 0 2258 c0 2399 1 2322 -46 2403 -55
94 -209 148 -326 115z m2389 -6406 c245 -59 450 -222 563 -447 62 -124 75
-187 74 -348 -1 -122 -4 -152 -28 -228 -48 -160 -113 -264 -236 -380 -95 -89
-232 -164 -365 -198 -111 -28 -291 -29 -396 -1 -241 64 -453 253 -553 491 -47
110 -60 178 -60 316 -1 154 14 217 80 350 107 218 312 385 544 445 103 26 267
26 377 0z"/>
<path d="M6965 13314 c-570 -106 -1009 -537 -1130 -1109 -10 -44 -19 -143 -22
-220 -15 -397 130 -765 413 -1049 353 -355 849 -491 1338 -367 521 133 924
553 1031 1076 23 112 30 300 16 425 -69 614 -460 1069 -1051 1223 -105 27
-132 30 -315 33 -148 3 -221 0 -280 -12z m454 -585 c146 -37 326 -147 417
-256 101 -120 171 -262 195 -398 17 -99 7 -282 -21 -370 -45 -141 -121 -265
-221 -361 -107 -101 -192 -151 -339 -200 -77 -25 -99 -28 -235 -28 -131 -1
-160 2 -225 22 -279 88 -484 293 -572 572 -20 64 -23 96 -23 220 0 124 3 156
23 220 103 325 380 562 702 600 87 10 209 1 299 -21z"/>
<path d="M1331 8580 c-98 -50 -150 -147 -137 -258 8 -70 28 -114 78 -180 23
-29 233 -241 467 -469 234 -229 427 -419 429 -424 2 -4 -34 -30 -80 -57 -71
-44 -138 -106 -469 -439 -263 -264 -394 -402 -409 -433 -16 -31 -23 -63 -23
-106 -1 -112 79 -230 190 -281 92 -42 199 -23 300 54 18 14 220 218 449 454
229 236 420 429 424 429 4 0 203 -200 440 -444 495 -508 498 -511 630 -511 64
0 83 4 129 30 179 99 212 290 79 457 -17 23 -221 221 -452 442 -231 220 -420
403 -419 406 15 39 173 204 466 488 378 365 421 410 457 482 50 98 34 232 -37
305 -92 95 -230 107 -383 34 -58 -28 -109 -75 -492 -459 l-427 -429 -313 326
c-527 547 -595 602 -757 611 -70 3 -81 1 -140 -28z"/>
<path d="M8160 4119 c-64 -34 -204 -171 -643 -627 -165 -172 -304 -311 -308
-310 -4 2 -162 165 -352 363 -597 625 -597 625 -741 575 -141 -48 -220 -115
-232 -196 -9 -59 7 -148 39 -217 28 -63 258 -301 631 -657 135 -129 246 -239
246 -244 0 -6 -197 -208 -438 -451 -494 -496 -506 -511 -506 -635 0 -73 21
-125 79 -189 88 -97 213 -123 330 -68 53 25 115 85 506 480 l446 450 214 -219
c117 -120 317 -323 443 -450 267 -267 299 -289 421 -289 83 0 135 26 202 98
63 68 77 102 78 182 0 58 -5 80 -30 130 -34 67 -94 130 -610 634 l-319 313
444 438 c504 496 515 509 515 625 0 83 -17 123 -83 196 -63 71 -124 99 -209
99 -57 0 -77 -5 -123 -31z"/>
<path d="M10473 4135 c-45 -19 -129 -100 -161 -155 -22 -37 -27 -57 -27 -115
0 -133 33 -171 663 -764 172 -162 311 -297 310 -301 -2 -3 -133 -131 -293
-285 -564 -544 -638 -625 -665 -726 -14 -53 3 -124 50 -201 57 -94 95 -122
179 -126 78 -5 160 15 231 55 27 15 212 193 471 454 l426 429 214 -228 c118
-125 306 -319 419 -432 224 -224 272 -259 400 -282 216 -41 367 151 289 369
-19 55 -44 82 -476 511 l-456 452 450 448 c502 498 507 505 508 622 0 81 -29
142 -97 206 -69 64 -125 87 -202 82 -125 -8 -137 -18 -596 -474 -233 -232
-428 -418 -444 -424 -21 -8 -37 -8 -56 0 -14 6 -149 137 -300 292 -355 363
-549 545 -623 581 -64 31 -158 37 -214 12z"/>
</g>
</svg>
